<svg
  aria-label="Crowded permanent toolbar with no selection"
  fill="none"
  role="img"
  viewBox="0 0 360 220"
  xmlns="http://www.w3.org/2000/svg"
>
  <title>Don't: keep bulk actions always visible</title>
  <rect fill="#f4f4f5" height="220" rx="16" width="360" />
  <rect
    fill="#ffffff"
    height="44"
    rx="10"
    stroke="#e4e4e7"
    width="312"
    x="24"
    y="24"
  />
  <rect
    fill="#18181b"
    height="16"
    opacity="0.2"
    rx="4"
    width="28"
    x="36"
    y="38"
  />
  <rect
    fill="#18181b"
    height="16"
    opacity="0.2"
    rx="4"
    width="28"
    x="72"
    y="38"
  />
  <rect
    fill="#18181b"
    height="16"
    opacity="0.2"
    rx="4"
    width="28"
    x="108"
    y="38"
  />
  <rect
    fill="#18181b"
    height="16"
    opacity="0.2"
    rx="4"
    width="28"
    x="144"
    y="38"
  />
  <rect
    fill="#dc2626"
    height="16"
    opacity="0.45"
    rx="4"
    width="28"
    x="180"
    y="38"
  />
  <rect
    fill="#18181b"
    height="16"
    opacity="0.2"
    rx="4"
    width="28"
    x="216"
    y="38"
  />
  <rect
    fill="#18181b"
    height="16"
    opacity="0.2"
    rx="4"
    width="28"
    x="252"
    y="38"
  />
  <rect
    fill="#18181b"
    height="16"
    opacity="0.2"
    rx="4"
    width="32"
    x="288"
    y="38"
  />
  <rect
    fill="#ffffff"
    height="32"
    opacity="0.85"
    rx="8"
    stroke="#e4e4e7"
    width="312"
    x="24"
    y="84"
  />
  <rect
    fill="transparent"
    height="12"
    rx="3"
    stroke="#d4d4d8"
    stroke-width="1.5"
    width="12"
    x="36"
    y="96"
  />
  <rect
    fill="#18181b"
    height="8"
    opacity="0.2"
    rx="4"
    width="120"
    x="58"
    y="98"
  />
  <rect
    fill="#ffffff"
    height="32"
    opacity="0.85"
    rx="8"
    stroke="#e4e4e7"
    width="312"
    x="24"
    y="124"
  />
  <rect
    fill="transparent"
    height="12"
    rx="3"
    stroke="#d4d4d8"
    stroke-width="1.5"
    width="12"
    x="36"
    y="136"
  />
  <rect
    fill="#18181b"
    height="8"
    opacity="0.2"
    rx="4"
    width="96"
    x="58"
    y="138"
  />
  <rect
    fill="#ffffff"
    height="32"
    opacity="0.85"
    rx="8"
    stroke="#e4e4e7"
    width="312"
    x="24"
    y="164"
  />
  <rect
    fill="transparent"
    height="12"
    rx="3"
    stroke="#d4d4d8"
    stroke-width="1.5"
    width="12"
    x="36"
    y="176"
  />
  <rect
    fill="#18181b"
    height="8"
    opacity="0.2"
    rx="4"
    width="140"
    x="58"
    y="178"
  />
</svg>
